<svg xmlns="http://www.w3.org/2000/svg" xmlns:xlink="http://www.w3.org/1999/xlink" aria-hidden="true" style="position: absolute; width: 0; height: 0; overflow: hidden;" version="1.1"> 
  <defs>
    <symbol id="icon-chevron-up" viewBox="0 0 512 512">
      <path
        fill="none" stroke="currentColor" stroke-linecap="round" stroke-linejoin="round" stroke-width="48" d="M112 328l144-144 144 144"
      />
    </symbol>
    <symbol id="icon-chevron-down" viewBox="0 0 512 512">
      <path
        fill="none" stroke="currentColor" stroke-linecap="round" stroke-linejoin="round" stroke-width="48" d="M112 184l144 144 144-144"
      />
    </symbol>
    <symbol id="icon-chevron-right" viewBox="0 0 512 512">
      <path fill="none" stroke="currentColor" stroke-linecap="square" stroke-miterlimit="10" stroke-width="48" d="M184 112l144 144-144 144"/>
    </symbol>
    <symbol id="icon-chevron-left" viewBox="0 0 512 512">
      <path fill="none" stroke="currentColor" stroke-linecap="square" stroke-miterlimit="10" stroke-width="48" d="M328 112L184 256l144 144"/>
    </symbol>
    <symbol id="icon-light-theme" viewBox="0 0 512 512">
      <path 
        d="M234 26h44v92h-44zM234 394h44v92h-44zM338.025 142.857l65.054-65.054 31.113 31.113-65.054 65.054zM77.815 403.074l65.054-65.054 31.113 31.113-65.054 65.054zM394 234h92v44h-92zM26 234h92v44H26zM338.029 369.14l31.112-31.113 65.054 65.054-31.112 31.112zM77.802 108.92l31.113-31.113 65.054 65.054-31.113 31.112zM256 358a102 102 0 11102-102 102.12 102.12 0 01-102 102z"
      />
    </symbol>
    <symbol id="icon-dark-theme" viewBox="0 0 512 512">
      <path
        d="M152.62 126.77c0-33 4.85-66.35 17.23-94.77C87.54 67.83 32 151.89 32 247.38 32 375.85 136.15 480 264.62 480c95.49 0 179.55-55.54 215.38-137.85-28.42 12.38-61.8 17.23-94.77 17.23-128.47 0-232.61-104.14-232.61-232.61z"
      />
    </symbol>
    <symbol id="icon-contrast" viewBox="0 0 512 512">
      <path
        d="M256 32C132.29 32 32 132.29 32 256s100.29 224 224 224 224-100.29 224-224S379.71 32 256 32zM128.72 383.28A180 180 0 01256 76v360a178.82 178.82 0 01-127.28-52.72z"
      />
    </symbol>

    <symbol id="icon-error" viewBox="0 0 512 512">
      <path 
        d="M448 256c0-106-86-192-192-192S64 150 64 256s86 192 192 192 192-86 192-192z" fill="none" stroke="currentColor" stroke-miterlimit="10" stroke-width="32"
      />
      <path 
        fill="none" stroke="currentColor" stroke-linecap="round" stroke-linejoin="round" stroke-width="32" d="M320 320L192 192M192 320l128-128"
      />
    </symbol>
    
    <symbol id="icon-warning" viewBox="0 0 512 512">
      <path 
        d="M85.57 446.25h340.86a32 32 0 0028.17-47.17L284.18 82.58c-12.09-22.44-44.27-22.44-56.36 0L57.4 399.08a32 32 0 0028.17 47.17z" fill="none" stroke="currentColor" stroke-linecap="round" stroke-linejoin="round" stroke-width="32"
      />
      <path 
        d="M250.26 195.39l5.74 122 5.73-121.95a5.74 5.74 0 00-5.79-6h0a5.74 5.74 0 00-5.68 5.95z" fill="none" stroke="currentColor" stroke-linecap="round" stroke-linejoin="round" stroke-width="32"
      />
      <path 
        d="M256 397.25a20 20 0 1120-20 20 20 0 01-20 20z"
      />
    </symbol>

    <symbol id="icon-success" viewBox="0 0 512 512">
      <path 
        d="M448 256c0-106-86-192-192-192S64 150 64 256s86 192 192 192 192-86 192-192z" fill="none" stroke="currentColor" stroke-miterlimit="10" stroke-width="32"
      />
      <path 
        fill="none" stroke="currentColor" stroke-linecap="round" stroke-linejoin="round" stroke-width="32" d="M352 176L217.6 336 160 272"
      />
    </symbol>

    <symbol id="icon-info" viewBox="0 0 512 512">
      <path 
        d="M448 256c0-106-86-192-192-192S64 150 64 256s86 192 192 192 192-86 192-192z" fill="none" stroke="currentColor" stroke-miterlimit="10" stroke-width="32"
      />
      <path 
        d="M250.26 166.05L256 288l5.73-121.95a5.74 5.74 0 00-5.79-6h0a5.74 5.74 0 00-5.68 6z" fill="none" stroke="currentColor" stroke-linecap="round" stroke-linejoin="round" stroke-width="32"
      />
      <path d="M256 367.91a20 20 0 1120-20 20 20 0 01-20 20z"/>
    </symbol>
    <symbol id="icon-paste" viewBox="0 0 512 512">
      <path d="M420 48h-68V28a12 12 0 00-12-12H172a12 12 0 00-12 12v20H92a12 12 0 00-12 12v424a12 12 0 0012 12h328a12 12 0 0012-12V60a12 12 0 00-12-12zm-84.13 64H176.13V80h159.74z"/>
    </symbol>
    <symbol id="icon-copy" viewBox="0 0 512 512">
      <path d="M456 480H136a24 24 0 01-24-24V128a16 16 0 0116-16h328a24 24 0 0124 24v320a24 24 0 01-24 24z"/>
      <path d="M112 80h288V56a24 24 0 00-24-24H60a28 28 0 00-28 28v316a24 24 0 0024 24h24V112a32 32 0 0132-32z"/>
    </symbol>
    <symbol id="icon-add" viewBox="0 0 512 512">
      <path
        fill="none" stroke="currentColor" stroke-linecap="square" stroke-linejoin="round" stroke-width="32" d="M256 112v288M400 256H112"
      />
    </symbol>
    <symbol id="icon-phone-call" viewBox="0 0 512 512">
      <path 
        d="M451 374c-15.88-16-54.34-39.35-73-48.76-24.3-12.24-26.3-13.24-45.4.95-12.74 9.47-21.21 17.93-36.12 14.75s-47.31-21.11-75.68-49.39-47.34-61.62-50.53-76.48 5.41-23.23 14.79-36c13.22-18 12.22-21 .92-45.3-8.81-18.9-32.84-57-48.9-72.8C119.9 44 119.9 47 108.83 51.6A160.15 160.15 0 0083 65.37C67 76 58.12 84.83 51.91 98.1s-9 44.38 23.07 102.64 54.57 88.05 101.14 134.49S258.5 406.64 310.85 436c64.76 36.27 89.6 29.2 102.91 23s22.18-15 32.83-31a159.09 159.09 0 0013.8-25.8C465 391.17 468 391.17 451 374z" fill="none" stroke="currentColor" stroke-miterlimit="10" stroke-width="32"
      />
    </symbol>
    <symbol id="icon-storefront" viewBox="0 0 512 512">
      <path
        fill="none" stroke="currentColor" stroke-linecap="round" stroke-linejoin="round" stroke-width="32" d="M448 448V240M64 240v208M382.47 48H129.53c-21.79 0-41.47 12-49.93 30.46L36.3 173c-14.58 31.81 9.63 67.85 47.19 69h2c31.4 0 56.85-25.18 56.85-52.23 0 27 25.46 52.23 56.86 52.23s56.8-23.38 56.8-52.23c0 27 25.45 52.23 56.85 52.23s56.86-23.38 56.86-52.23c0 28.85 25.45 52.23 56.85 52.23h1.95c37.56-1.17 61.77-37.21 47.19-69l-43.3-94.54C423.94 60 404.26 48 382.47 48zM32 464h448M136 288h80a24 24 0 0124 24v88h0-128 0v-88a24 24 0 0124-24zM288 464V312a24 24 0 0124-24h64a24 24 0 0124 24v152"
      />
    </symbol>
    <symbol id="icon-reader" viewBox="0 0 512 512">
      <rect
        x="96" y="48" width="320" height="416" rx="48" ry="48" fill="none" stroke="currentColor" stroke-linejoin="round" stroke-width="32"
      />
      <path
        fill="none" stroke="currentColor" stroke-linecap="round" stroke-linejoin="round" stroke-width="32" d="M176 128h160M176 208h160M176 288h80"
      />
    </symbol>
    <symbol id="icon-save" viewBox="0 0 512 512">
      <path
        d="M380.44 32H64a32 32 0 00-32 32v384a32 32 0 0032 32h384a32.09 32.09 0 0032-32V131.56zM112 176v-64h192v64zm223.91 179.76a80 80 0 11-83.66-83.67 80.21 80.21 0 0183.66 83.67z"
      />
    </symbol>
    <symbol id="icon-sync" viewBox="0 0 512 512">
      <path
        d="M434.67 285.59v-29.8c0-98.73-80.24-178.79-179.2-178.79a179 179 0 00-140.14 67.36m-38.53 82v29.8C76.8 355 157 435 256 435a180.45 180.45 0 00140-66.92" fill="none" stroke="currentColor" stroke-linecap="round" stroke-linejoin="round" stroke-width="32"
      />
      <path
        fill="none" stroke="currentColor" stroke-linecap="round" stroke-linejoin="round" stroke-width="32" d="M32 256l44-44 46 44M480 256l-44 44-46-44"
      />
    </symbol>
    <symbol id="icon-ms-teams" viewBox="0 0 16 16">
      <path
        d="M9.186 4.797a2.42 2.42 0 1 0-2.86-2.448h1.178c.929 0 1.682.753 1.682 1.682v.766Zm-4.295 7.738h2.613c.929 0 1.682-.753 1.682-1.682V5.58h2.783a.7.7 0 0 1 .682.716v4.294a4.197 4.197 0 0 1-4.093 4.293c-1.618-.04-3-.99-3.667-2.35Zm10.737-9.372a1.674 1.674 0 1 1-3.349 0 1.674 1.674 0 0 1 3.349 0Zm-2.238 9.488c-.04 0-.08 0-.12-.002a5.19 5.19 0 0 0 .381-2.07V6.306a1.692 1.692 0 0 0-.15-.725h1.792c.39 0 .707.317.707.707v3.765a2.598 2.598 0 0 1-2.598 2.598h-.013Z"
      />
      <path
        d="M.682 3.349h6.822c.377 0 .682.305.682.682v6.822a.682.682 0 0 1-.682.682H.682A.682.682 0 0 1 0 10.853V4.03c0-.377.305-.682.682-.682Zm5.206 2.596v-.72h-3.59v.72h1.357V9.66h.87V5.945h1.363Z"
      />
    </symbol>
    <symbol id="icon-loader" viewBox="0 0 24 24">
      <g class="spinner">
        <circle cx="12" cy="12" r="9.5" fill="none" stroke-width="3"></circle>
      </g>
    </symbol>
    <symbol id="icon-delete" viewBox="0 0 512 512">
      <path 
        d="M112 112l20 320c.95 18.49 14.4 32 32 32h184c17.67 0 30.87-13.51 32-32l20-320" fill="none" stroke="currentColor" stroke-linecap="round" stroke-linejoin="round" stroke-width="32"
      />
      <path 
        stroke="currentColor" stroke-linecap="round" stroke-miterlimit="10" stroke-width="32" d="M80 112h352"
      />
      <path 
        d="M192 112V72h0a23.93 23.93 0 0124-24h80a23.93 23.93 0 0124 24h0v40M256 176v224M184 176l8 224M328 176l-8 224" fill="none" stroke="currentColor" stroke-linecap="round" stroke-linejoin="round" stroke-width="32"
      />
    </symbol>

    <symbol id="icon-enable" viewBox="0 0 24 24">
      <path d="m10 15.586-3.293-3.293-1.414 1.414L10 18.414l9.707-9.707-1.414-1.414z"></path>
    </symbol>

    <symbol id="icon-disable" viewBox="0 0 24 24">
      <path d="M12 2C6.486 2 2 6.486 2 12s4.486 10 10 10 10-4.486 10-10S17.514 2 12 2zM4 12c0-1.846.634-3.542 1.688-4.897l11.209 11.209A7.946 7.946 0 0 1 12 20c-4.411 0-8-3.589-8-8zm14.312 4.897L7.103 5.688A7.948 7.948 0 0 1 12 4c4.411 0 8 3.589 8 8a7.954 7.954 0 0 1-1.688 4.897z"></path>
    </symbol>

    <symbol id="icon-lock-closed" viewBox="0 0 24 24">
      <path d="M12 2C9.243 2 7 4.243 7 7v3H6c-1.103 0-2 .897-2 2v8c0 1.103.897 2 2 2h12c1.103 0 2-.897 2-2v-8c0-1.103-.897-2-2-2h-1V7c0-2.757-2.243-5-5-5zm6 10 .002 8H6v-8h12zm-9-2V7c0-1.654 1.346-3 3-3s3 1.346 3 3v3H9z"></path>
    </symbol>

    <symbol id="icon-user" viewBox="0 0 24 24">
      <path d="M12 2a5 5 0 1 0 5 5 5 5 0 0 0-5-5zm0 8a3 3 0 1 1 3-3 3 3 0 0 1-3 3zm9 11v-1a7 7 0 0 0-7-7h-4a7 7 0 0 0-7 7v1h2v-1a5 5 0 0 1 5-5h4a5 5 0 0 1 5 5v1z"></path>
    </symbol>
  </defs>
</svg>